<svg width="66" height="81" viewBox="0 0 66 81" fill="none" xmlns="http://www.w3.org/2000/svg">
<g clip-path="url(#clip0_103_506)">
<rect width="66" height="81" fill="white"/>
<path d="M63.9325 26.6353C58.5253 29.9706 55.1855 35.6882 55.1855 42.0412C55.1855 49.1882 59.4795 55.7 66 58.4C64.7277 62.5294 62.8193 66.3412 60.4337 69.8353C56.9349 74.7588 53.2771 79.8412 47.8699 79.8412C42.4627 79.8412 40.8723 76.6647 34.5108 76.6647C28.3084 76.6647 26.0819 80 20.9928 80C15.9036 80 12.4048 75.3941 8.42892 69.6765C3.18072 61.7353 0.159036 52.5235 0 42.8353C0 27.1118 10.1783 18.6941 20.3566 18.6941C25.7639 18.6941 30.2169 22.1882 33.5566 22.1882C36.7374 22.1882 41.8265 18.5353 47.8699 18.5353C54.2313 18.3765 60.2747 21.3941 63.9325 26.6353ZM45.0072 11.8647C47.7108 8.68824 49.1422 4.71765 49.3012 0.588235C49.3012 0.111765 49.3012 -0.523529 49.1422 -1C44.5301 -0.523529 40.2361 1.7 37.2145 5.19412C34.5108 8.21176 32.9205 12.0235 32.7614 16.1529C32.7614 16.6294 32.7614 17.1059 32.9205 17.5824C33.2386 17.5824 33.7157 17.7412 34.0337 17.7412C38.3277 17.4235 42.3036 15.2 45.0072 11.8647Z" fill="black"/>
</g>
<defs>
<clipPath id="clip0_103_506">
<rect width="66" height="81" fill="white"/>
</clipPath>
</defs>
</svg>
