<svg width="66" height="81" viewBox="0 0 66 81" fill="none" xmlns="http://www.w3.org/2000/svg">
<g clip-path="url(#clip0_75_523)">
<rect width="66" height="81" fill="white"/>
<path d="M63.9325 27.6353C58.5253 30.9706 55.1855 36.6882 55.1855 43.0412C55.1855 50.1882 59.4795 56.7 66 59.4C64.7277 63.5294 62.8193 67.3412 60.4337 70.8353C56.9349 75.7588 53.2771 80.8412 47.8699 80.8412C42.4627 80.8412 40.8723 77.6647 34.5108 77.6647C28.3084 77.6647 26.0819 81 20.9928 81C15.9036 81 12.4048 76.3941 8.42892 70.6765C3.18072 62.7353 0.159036 53.5235 0 43.8353C0 28.1118 10.1783 19.6941 20.3566 19.6941C25.7639 19.6941 30.2169 23.1882 33.5566 23.1882C36.7374 23.1882 41.8265 19.5353 47.8699 19.5353C54.2313 19.3765 60.2747 22.3941 63.9325 27.6353ZM45.0072 12.8647C47.7108 9.68824 49.1422 5.71765 49.3012 1.58824C49.3012 1.11176 49.3012 0.476471 49.1422 0C44.5301 0.476471 40.2361 2.7 37.2145 6.19412C34.5108 9.21176 32.9205 13.0235 32.7614 17.1529C32.7614 17.6294 32.7614 18.1059 32.9205 18.5824C33.2386 18.5824 33.7157 18.7412 34.0337 18.7412C38.3277 18.4235 42.3036 16.2 45.0072 12.8647Z" fill="black"/>
</g>
<defs>
<clipPath id="clip0_75_523">
<rect width="66" height="81" fill="white"/>
</clipPath>
</defs>
</svg>
