<svg width="61" height="61" viewBox="0 0 61 61" fill="none" xmlns="http://www.w3.org/2000/svg">
<path d="M61 30.4999C61 13.6552 47.3447 -8.01086e-05 30.5 -8.01086e-05C13.6553 -8.01086e-05 0 13.6552 0 30.4999C0 45.7233 11.1534 58.3413 25.7344 60.6294V39.3163H17.9902V30.4999H25.7344V23.7804C25.7344 16.1363 30.2878 11.914 37.2547 11.914C40.5916 11.914 44.082 12.5097 44.082 12.5097V20.0155H40.236C36.4472 20.0155 35.2656 22.3666 35.2656 24.7786V30.4999H43.7246L42.3724 39.3163H35.2656V60.6294C49.8466 58.3413 61 45.7233 61 30.4999Z" fill="#8489F9"/>
<path d="M42.3724 39.3164L43.7246 30.5H35.2656V24.7787C35.2656 22.3667 36.4472 20.0156 40.2361 20.0156H44.082V12.5098C44.082 12.5098 40.5916 11.9141 37.2547 11.9141C30.2878 11.9141 25.7344 16.1364 25.7344 23.7805V30.5H17.9902V39.3164H25.7344V60.6295C27.2872 60.8731 28.8787 61 30.5 61C32.1213 61 33.7128 60.8731 35.2656 60.6295V39.3164H42.3724Z" fill="white"/>
</svg>
