<svg width="70" height="70" viewBox="0 0 70 70" fill="none" xmlns="http://www.w3.org/2000/svg">
<path d="M65.8 35.7292C65.8 33.4542 65.5958 31.2667 65.2167 29.1667H35V41.5772H52.2667C51.5229 45.5876 49.2625 48.9855 45.8646 51.2605V59.3105H56.2333C62.3 53.7251 65.8 45.5001 65.8 35.7292Z" fill="#4285F4"/>
<path d="M34.9999 67.0834C43.6624 67.0834 50.9249 64.2105 56.2333 59.3105L45.8645 51.2605C42.9916 53.1855 39.3166 54.323 34.9999 54.323C26.6437 54.323 19.5708 48.6793 17.0479 41.0959H6.3291V49.4084C11.6083 59.8939 22.4583 67.0834 34.9999 67.0834Z" fill="#34A853"/>
<path d="M17.0482 41.0957C16.4066 39.1707 16.042 37.1145 16.042 34.9999C16.042 32.8853 16.4066 30.8291 17.0482 28.9041V20.5916H6.32949C4.08366 25.0624 2.91501 29.9967 2.91699 34.9999C2.91699 40.177 4.15658 45.077 6.32949 49.4082L17.0482 41.0957Z" fill="#FBBC05"/>
<path d="M34.9999 15.6772C39.7104 15.6772 43.9395 17.2959 47.2645 20.4751L56.4666 11.273C50.9104 6.09591 43.6479 2.91675 34.9999 2.91675C22.4583 2.91675 11.6083 10.1063 6.3291 20.5917L17.0479 28.9042C19.5708 21.3209 26.6437 15.6772 34.9999 15.6772Z" fill="#EA4335"/>
</svg>
